<mxfile host="app.diagrams.net" modified="2022-06-13T20:48:16.120Z" agent="5.0 (Windows NT 6.1; Win64; x64) AppleWebKit/537.36 (KHTML, like Gecko) Chrome/102.0.5005.63 Safari/537.36" etag="fHbFyHmcutl13E1sf4Z8" version="18.0.7" type="github">
  <diagram id="ZO3EFKfAlkieTS0eKDmI" name="Page-1">
    <mxGraphModel dx="1724" dy="926" grid="1" gridSize="10" guides="1" tooltips="1" connect="1" arrows="1" fold="1" page="1" pageScale="1" pageWidth="827" pageHeight="1169" math="0" shadow="0">
      <root>
        <mxCell id="0" />
        <mxCell id="1" parent="0" />
        <mxCell id="HfNDsVtk481CN_nXI6_j-1" value="users" style="shape=table;startSize=30;container=1;collapsible=1;childLayout=tableLayout;fixedRows=1;rowLines=0;fontStyle=1;align=center;resizeLast=1;" vertex="1" parent="1">
          <mxGeometry x="50" y="20" width="180" height="190" as="geometry" />
        </mxCell>
        <mxCell id="HfNDsVtk481CN_nXI6_j-2" value="" style="shape=tableRow;horizontal=0;startSize=0;swimlaneHead=0;swimlaneBody=0;fillColor=none;collapsible=0;dropTarget=0;points=[[0,0.5],[1,0.5]];portConstraint=eastwest;top=0;left=0;right=0;bottom=1;" vertex="1" parent="HfNDsVtk481CN_nXI6_j-1">
          <mxGeometry y="30" width="180" height="30" as="geometry" />
        </mxCell>
        <mxCell id="HfNDsVtk481CN_nXI6_j-3" value="PK" style="shape=partialRectangle;connectable=0;fillColor=none;top=0;left=0;bottom=0;right=0;fontStyle=1;overflow=hidden;" vertex="1" parent="HfNDsVtk481CN_nXI6_j-2">
          <mxGeometry width="30" height="30" as="geometry">
            <mxRectangle width="30" height="30" as="alternateBounds" />
          </mxGeometry>
        </mxCell>
        <mxCell id="HfNDsVtk481CN_nXI6_j-4" value="id varchar(12)" style="shape=partialRectangle;connectable=0;fillColor=none;top=0;left=0;bottom=0;right=0;align=left;spacingLeft=6;fontStyle=5;overflow=hidden;" vertex="1" parent="HfNDsVtk481CN_nXI6_j-2">
          <mxGeometry x="30" width="150" height="30" as="geometry">
            <mxRectangle width="150" height="30" as="alternateBounds" />
          </mxGeometry>
        </mxCell>
        <mxCell id="HfNDsVtk481CN_nXI6_j-5" value="" style="shape=tableRow;horizontal=0;startSize=0;swimlaneHead=0;swimlaneBody=0;fillColor=none;collapsible=0;dropTarget=0;points=[[0,0.5],[1,0.5]];portConstraint=eastwest;top=0;left=0;right=0;bottom=0;" vertex="1" parent="HfNDsVtk481CN_nXI6_j-1">
          <mxGeometry y="60" width="180" height="130" as="geometry" />
        </mxCell>
        <mxCell id="HfNDsVtk481CN_nXI6_j-6" value="" style="shape=partialRectangle;connectable=0;fillColor=none;top=0;left=0;bottom=0;right=0;editable=1;overflow=hidden;" vertex="1" parent="HfNDsVtk481CN_nXI6_j-5">
          <mxGeometry width="30" height="130" as="geometry">
            <mxRectangle width="30" height="130" as="alternateBounds" />
          </mxGeometry>
        </mxCell>
        <mxCell id="HfNDsVtk481CN_nXI6_j-7" value="username varchar(30)&#xa;&#xa;password text&#xa;&#xa;role int(2)&#xa;&#xa;created_at timestamp" style="shape=partialRectangle;connectable=0;fillColor=none;top=0;left=0;bottom=0;right=0;align=left;spacingLeft=6;overflow=hidden;" vertex="1" parent="HfNDsVtk481CN_nXI6_j-5">
          <mxGeometry x="30" width="150" height="130" as="geometry">
            <mxRectangle width="150" height="130" as="alternateBounds" />
          </mxGeometry>
        </mxCell>
        <mxCell id="HfNDsVtk481CN_nXI6_j-14" value="users_profile" style="shape=table;startSize=30;container=1;collapsible=1;childLayout=tableLayout;fixedRows=1;rowLines=0;fontStyle=1;align=center;resizeLast=1;" vertex="1" parent="1">
          <mxGeometry x="50" y="250" width="180" height="370" as="geometry" />
        </mxCell>
        <mxCell id="HfNDsVtk481CN_nXI6_j-15" value="" style="shape=tableRow;horizontal=0;startSize=0;swimlaneHead=0;swimlaneBody=0;fillColor=none;collapsible=0;dropTarget=0;points=[[0,0.5],[1,0.5]];portConstraint=eastwest;top=0;left=0;right=0;bottom=1;" vertex="1" parent="HfNDsVtk481CN_nXI6_j-14">
          <mxGeometry y="30" width="180" height="30" as="geometry" />
        </mxCell>
        <mxCell id="HfNDsVtk481CN_nXI6_j-16" value="PK" style="shape=partialRectangle;connectable=0;fillColor=none;top=0;left=0;bottom=0;right=0;fontStyle=1;overflow=hidden;" vertex="1" parent="HfNDsVtk481CN_nXI6_j-15">
          <mxGeometry width="30" height="30" as="geometry">
            <mxRectangle width="30" height="30" as="alternateBounds" />
          </mxGeometry>
        </mxCell>
        <mxCell id="HfNDsVtk481CN_nXI6_j-17" value="id bigint(20)" style="shape=partialRectangle;connectable=0;fillColor=none;top=0;left=0;bottom=0;right=0;align=left;spacingLeft=6;fontStyle=5;overflow=hidden;" vertex="1" parent="HfNDsVtk481CN_nXI6_j-15">
          <mxGeometry x="30" width="150" height="30" as="geometry">
            <mxRectangle width="150" height="30" as="alternateBounds" />
          </mxGeometry>
        </mxCell>
        <mxCell id="HfNDsVtk481CN_nXI6_j-18" value="" style="shape=tableRow;horizontal=0;startSize=0;swimlaneHead=0;swimlaneBody=0;fillColor=none;collapsible=0;dropTarget=0;points=[[0,0.5],[1,0.5]];portConstraint=eastwest;top=0;left=0;right=0;bottom=0;" vertex="1" parent="HfNDsVtk481CN_nXI6_j-14">
          <mxGeometry y="60" width="180" height="310" as="geometry" />
        </mxCell>
        <mxCell id="HfNDsVtk481CN_nXI6_j-19" value="" style="shape=partialRectangle;connectable=0;fillColor=none;top=0;left=0;bottom=0;right=0;editable=1;overflow=hidden;" vertex="1" parent="HfNDsVtk481CN_nXI6_j-18">
          <mxGeometry width="30" height="310" as="geometry">
            <mxRectangle width="30" height="310" as="alternateBounds" />
          </mxGeometry>
        </mxCell>
        <mxCell id="HfNDsVtk481CN_nXI6_j-20" value="user_id varchar(12)&#xa;&#xa;name varchar(50)&#xa;&#xa;img text&#xa;&#xa;address text&#xa;&#xa;bio text&#xa;&#xa;tel varchar(25)&#xa;&#xa;ig varchar(30)&#xa;&#xa;em varchar(50)&#xa;&#xa;information longtext&#xa;&#xa;created_at timestamp&#xa;&#xa;updated_at timestamp" style="shape=partialRectangle;connectable=0;fillColor=none;top=0;left=0;bottom=0;right=0;align=left;spacingLeft=6;overflow=hidden;" vertex="1" parent="HfNDsVtk481CN_nXI6_j-18">
          <mxGeometry x="30" width="150" height="310" as="geometry">
            <mxRectangle width="150" height="310" as="alternateBounds" />
          </mxGeometry>
        </mxCell>
        <mxCell id="HfNDsVtk481CN_nXI6_j-21" value="services" style="shape=table;startSize=30;container=1;collapsible=1;childLayout=tableLayout;fixedRows=1;rowLines=0;fontStyle=1;align=center;resizeLast=1;" vertex="1" parent="1">
          <mxGeometry x="520" y="20" width="180" height="300" as="geometry" />
        </mxCell>
        <mxCell id="HfNDsVtk481CN_nXI6_j-22" value="" style="shape=tableRow;horizontal=0;startSize=0;swimlaneHead=0;swimlaneBody=0;fillColor=none;collapsible=0;dropTarget=0;points=[[0,0.5],[1,0.5]];portConstraint=eastwest;top=0;left=0;right=0;bottom=1;" vertex="1" parent="HfNDsVtk481CN_nXI6_j-21">
          <mxGeometry y="30" width="180" height="30" as="geometry" />
        </mxCell>
        <mxCell id="HfNDsVtk481CN_nXI6_j-23" value="PK" style="shape=partialRectangle;connectable=0;fillColor=none;top=0;left=0;bottom=0;right=0;fontStyle=1;overflow=hidden;" vertex="1" parent="HfNDsVtk481CN_nXI6_j-22">
          <mxGeometry width="30" height="30" as="geometry">
            <mxRectangle width="30" height="30" as="alternateBounds" />
          </mxGeometry>
        </mxCell>
        <mxCell id="HfNDsVtk481CN_nXI6_j-24" value="id varchar(12)" style="shape=partialRectangle;connectable=0;fillColor=none;top=0;left=0;bottom=0;right=0;align=left;spacingLeft=6;fontStyle=5;overflow=hidden;" vertex="1" parent="HfNDsVtk481CN_nXI6_j-22">
          <mxGeometry x="30" width="150" height="30" as="geometry">
            <mxRectangle width="150" height="30" as="alternateBounds" />
          </mxGeometry>
        </mxCell>
        <mxCell id="HfNDsVtk481CN_nXI6_j-25" value="" style="shape=tableRow;horizontal=0;startSize=0;swimlaneHead=0;swimlaneBody=0;fillColor=none;collapsible=0;dropTarget=0;points=[[0,0.5],[1,0.5]];portConstraint=eastwest;top=0;left=0;right=0;bottom=0;" vertex="1" parent="HfNDsVtk481CN_nXI6_j-21">
          <mxGeometry y="60" width="180" height="240" as="geometry" />
        </mxCell>
        <mxCell id="HfNDsVtk481CN_nXI6_j-26" value="" style="shape=partialRectangle;connectable=0;fillColor=none;top=0;left=0;bottom=0;right=0;editable=1;overflow=hidden;" vertex="1" parent="HfNDsVtk481CN_nXI6_j-25">
          <mxGeometry width="30" height="240" as="geometry">
            <mxRectangle width="30" height="240" as="alternateBounds" />
          </mxGeometry>
        </mxCell>
        <mxCell id="HfNDsVtk481CN_nXI6_j-27" value="user_id bigint(20)&#xa;&#xa;title varchar(50)&#xa;&#xa;description text&#xa;&#xa;location text&#xa;&#xa;payment varchar(20)&#xa;&#xa;status int(1)&#xa;&#xa;created_at timestamp&#xa;&#xa;updated_at timestamp" style="shape=partialRectangle;connectable=0;fillColor=none;top=0;left=0;bottom=0;right=0;align=left;spacingLeft=6;overflow=hidden;" vertex="1" parent="HfNDsVtk481CN_nXI6_j-25">
          <mxGeometry x="30" width="150" height="240" as="geometry">
            <mxRectangle width="150" height="240" as="alternateBounds" />
          </mxGeometry>
        </mxCell>
        <mxCell id="HfNDsVtk481CN_nXI6_j-28" value="marketplace" style="shape=table;startSize=30;container=1;collapsible=1;childLayout=tableLayout;fixedRows=1;rowLines=0;fontStyle=1;align=center;resizeLast=1;" vertex="1" parent="1">
          <mxGeometry x="590" y="350" width="180" height="360" as="geometry" />
        </mxCell>
        <mxCell id="HfNDsVtk481CN_nXI6_j-29" value="" style="shape=tableRow;horizontal=0;startSize=0;swimlaneHead=0;swimlaneBody=0;fillColor=none;collapsible=0;dropTarget=0;points=[[0,0.5],[1,0.5]];portConstraint=eastwest;top=0;left=0;right=0;bottom=1;" vertex="1" parent="HfNDsVtk481CN_nXI6_j-28">
          <mxGeometry y="30" width="180" height="30" as="geometry" />
        </mxCell>
        <mxCell id="HfNDsVtk481CN_nXI6_j-30" value="PK" style="shape=partialRectangle;connectable=0;fillColor=none;top=0;left=0;bottom=0;right=0;fontStyle=1;overflow=hidden;" vertex="1" parent="HfNDsVtk481CN_nXI6_j-29">
          <mxGeometry width="30" height="30" as="geometry">
            <mxRectangle width="30" height="30" as="alternateBounds" />
          </mxGeometry>
        </mxCell>
        <mxCell id="HfNDsVtk481CN_nXI6_j-31" value="id varchar(12)" style="shape=partialRectangle;connectable=0;fillColor=none;top=0;left=0;bottom=0;right=0;align=left;spacingLeft=6;fontStyle=5;overflow=hidden;" vertex="1" parent="HfNDsVtk481CN_nXI6_j-29">
          <mxGeometry x="30" width="150" height="30" as="geometry">
            <mxRectangle width="150" height="30" as="alternateBounds" />
          </mxGeometry>
        </mxCell>
        <mxCell id="HfNDsVtk481CN_nXI6_j-32" value="" style="shape=tableRow;horizontal=0;startSize=0;swimlaneHead=0;swimlaneBody=0;fillColor=none;collapsible=0;dropTarget=0;points=[[0,0.5],[1,0.5]];portConstraint=eastwest;top=0;left=0;right=0;bottom=0;" vertex="1" parent="HfNDsVtk481CN_nXI6_j-28">
          <mxGeometry y="60" width="180" height="300" as="geometry" />
        </mxCell>
        <mxCell id="HfNDsVtk481CN_nXI6_j-33" value="" style="shape=partialRectangle;connectable=0;fillColor=none;top=0;left=0;bottom=0;right=0;editable=1;overflow=hidden;" vertex="1" parent="HfNDsVtk481CN_nXI6_j-32">
          <mxGeometry width="30" height="300" as="geometry">
            <mxRectangle width="30" height="300" as="alternateBounds" />
          </mxGeometry>
        </mxCell>
        <mxCell id="HfNDsVtk481CN_nXI6_j-34" value="user_id bigint(20)&#xa;&#xa;title varchar(100)&#xa;&#xa;price varchar(30)&#xa;&#xa;description text&#xa;&#xa;location text&#xa;&#xa;images longtext&#xa;&#xa;thumbnail varchar(50)&#xa;&#xa;status int(1)&#xa;&#xa;created_at timestamp&#xa;&#xa;updated_at timestamp" style="shape=partialRectangle;connectable=0;fillColor=none;top=0;left=0;bottom=0;right=0;align=left;spacingLeft=6;overflow=hidden;" vertex="1" parent="HfNDsVtk481CN_nXI6_j-32">
          <mxGeometry x="30" width="150" height="300" as="geometry">
            <mxRectangle width="150" height="300" as="alternateBounds" />
          </mxGeometry>
        </mxCell>
        <mxCell id="HfNDsVtk481CN_nXI6_j-35" value="posts" style="shape=table;startSize=30;container=1;collapsible=1;childLayout=tableLayout;fixedRows=1;rowLines=0;fontStyle=1;align=center;resizeLast=1;" vertex="1" parent="1">
          <mxGeometry x="320" y="390" width="180" height="370" as="geometry" />
        </mxCell>
        <mxCell id="HfNDsVtk481CN_nXI6_j-36" value="" style="shape=tableRow;horizontal=0;startSize=0;swimlaneHead=0;swimlaneBody=0;fillColor=none;collapsible=0;dropTarget=0;points=[[0,0.5],[1,0.5]];portConstraint=eastwest;top=0;left=0;right=0;bottom=1;" vertex="1" parent="HfNDsVtk481CN_nXI6_j-35">
          <mxGeometry y="30" width="180" height="30" as="geometry" />
        </mxCell>
        <mxCell id="HfNDsVtk481CN_nXI6_j-37" value="PK" style="shape=partialRectangle;connectable=0;fillColor=none;top=0;left=0;bottom=0;right=0;fontStyle=1;overflow=hidden;" vertex="1" parent="HfNDsVtk481CN_nXI6_j-36">
          <mxGeometry width="30" height="30" as="geometry">
            <mxRectangle width="30" height="30" as="alternateBounds" />
          </mxGeometry>
        </mxCell>
        <mxCell id="HfNDsVtk481CN_nXI6_j-38" value="id varchar(12)" style="shape=partialRectangle;connectable=0;fillColor=none;top=0;left=0;bottom=0;right=0;align=left;spacingLeft=6;fontStyle=5;overflow=hidden;" vertex="1" parent="HfNDsVtk481CN_nXI6_j-36">
          <mxGeometry x="30" width="150" height="30" as="geometry">
            <mxRectangle width="150" height="30" as="alternateBounds" />
          </mxGeometry>
        </mxCell>
        <mxCell id="HfNDsVtk481CN_nXI6_j-39" value="" style="shape=tableRow;horizontal=0;startSize=0;swimlaneHead=0;swimlaneBody=0;fillColor=none;collapsible=0;dropTarget=0;points=[[0,0.5],[1,0.5]];portConstraint=eastwest;top=0;left=0;right=0;bottom=0;" vertex="1" parent="HfNDsVtk481CN_nXI6_j-35">
          <mxGeometry y="60" width="180" height="310" as="geometry" />
        </mxCell>
        <mxCell id="HfNDsVtk481CN_nXI6_j-40" value="" style="shape=partialRectangle;connectable=0;fillColor=none;top=0;left=0;bottom=0;right=0;editable=1;overflow=hidden;" vertex="1" parent="HfNDsVtk481CN_nXI6_j-39">
          <mxGeometry width="30" height="310" as="geometry">
            <mxRectangle width="30" height="310" as="alternateBounds" />
          </mxGeometry>
        </mxCell>
        <mxCell id="HfNDsVtk481CN_nXI6_j-41" value="user_id bigint(20)&#xa;&#xa;type varchar(15)&#xa;&#xa;text text&#xa;&#xa;url text&#xa;&#xa;images longtext&#xa;&#xa;thumbnail varchar(50)&#xa;&#xa;status int(1)&#xa;&#xa;views bigint(20)&#xa;&#xa;comment int(11)&#xa;&#xa;created_at timestamp&#xa;&#xa;updated_at timestamp" style="shape=partialRectangle;connectable=0;fillColor=none;top=0;left=0;bottom=0;right=0;align=left;spacingLeft=6;overflow=hidden;" vertex="1" parent="HfNDsVtk481CN_nXI6_j-39">
          <mxGeometry x="30" width="150" height="310" as="geometry">
            <mxRectangle width="150" height="310" as="alternateBounds" />
          </mxGeometry>
        </mxCell>
        <mxCell id="HfNDsVtk481CN_nXI6_j-49" value="posts_comments" style="shape=table;startSize=30;container=1;collapsible=1;childLayout=tableLayout;fixedRows=1;rowLines=0;fontStyle=1;align=center;resizeLast=1;" vertex="1" parent="1">
          <mxGeometry x="324" y="830" width="180" height="200" as="geometry" />
        </mxCell>
        <mxCell id="HfNDsVtk481CN_nXI6_j-50" value="" style="shape=tableRow;horizontal=0;startSize=0;swimlaneHead=0;swimlaneBody=0;fillColor=none;collapsible=0;dropTarget=0;points=[[0,0.5],[1,0.5]];portConstraint=eastwest;top=0;left=0;right=0;bottom=1;" vertex="1" parent="HfNDsVtk481CN_nXI6_j-49">
          <mxGeometry y="30" width="180" height="30" as="geometry" />
        </mxCell>
        <mxCell id="HfNDsVtk481CN_nXI6_j-51" value="PK" style="shape=partialRectangle;connectable=0;fillColor=none;top=0;left=0;bottom=0;right=0;fontStyle=1;overflow=hidden;" vertex="1" parent="HfNDsVtk481CN_nXI6_j-50">
          <mxGeometry width="30" height="30" as="geometry">
            <mxRectangle width="30" height="30" as="alternateBounds" />
          </mxGeometry>
        </mxCell>
        <mxCell id="HfNDsVtk481CN_nXI6_j-52" value="id varchar(12)" style="shape=partialRectangle;connectable=0;fillColor=none;top=0;left=0;bottom=0;right=0;align=left;spacingLeft=6;fontStyle=5;overflow=hidden;" vertex="1" parent="HfNDsVtk481CN_nXI6_j-50">
          <mxGeometry x="30" width="150" height="30" as="geometry">
            <mxRectangle width="150" height="30" as="alternateBounds" />
          </mxGeometry>
        </mxCell>
        <mxCell id="HfNDsVtk481CN_nXI6_j-53" value="" style="shape=tableRow;horizontal=0;startSize=0;swimlaneHead=0;swimlaneBody=0;fillColor=none;collapsible=0;dropTarget=0;points=[[0,0.5],[1,0.5]];portConstraint=eastwest;top=0;left=0;right=0;bottom=0;" vertex="1" parent="HfNDsVtk481CN_nXI6_j-49">
          <mxGeometry y="60" width="180" height="140" as="geometry" />
        </mxCell>
        <mxCell id="HfNDsVtk481CN_nXI6_j-54" value="" style="shape=partialRectangle;connectable=0;fillColor=none;top=0;left=0;bottom=0;right=0;editable=1;overflow=hidden;" vertex="1" parent="HfNDsVtk481CN_nXI6_j-53">
          <mxGeometry width="30" height="140" as="geometry">
            <mxRectangle width="30" height="140" as="alternateBounds" />
          </mxGeometry>
        </mxCell>
        <mxCell id="HfNDsVtk481CN_nXI6_j-55" value="user_id bigint(20)&#xa;&#xa;post_id varchar(12)&#xa;&#xa;text text&#xa;&#xa;created_at timestamp&#xa;&#xa;updated_at timestamp" style="shape=partialRectangle;connectable=0;fillColor=none;top=0;left=0;bottom=0;right=0;align=left;spacingLeft=6;overflow=hidden;fontStyle=0" vertex="1" parent="HfNDsVtk481CN_nXI6_j-53">
          <mxGeometry x="30" width="150" height="140" as="geometry">
            <mxRectangle width="150" height="140" as="alternateBounds" />
          </mxGeometry>
        </mxCell>
        <mxCell id="HfNDsVtk481CN_nXI6_j-56" value="" style="edgeStyle=entityRelationEdgeStyle;fontSize=12;html=1;endArrow=ERmandOne;startArrow=ERmandOne;rounded=0;" edge="1" parent="1" source="HfNDsVtk481CN_nXI6_j-18" target="HfNDsVtk481CN_nXI6_j-5">
          <mxGeometry width="100" height="100" relative="1" as="geometry">
            <mxPoint x="45" y="490" as="sourcePoint" />
            <mxPoint x="370" y="160" as="targetPoint" />
          </mxGeometry>
        </mxCell>
        <mxCell id="HfNDsVtk481CN_nXI6_j-61" value="" style="edgeStyle=entityRelationEdgeStyle;fontSize=12;html=1;endArrow=ERzeroToMany;startArrow=ERmandOne;rounded=0;exitX=1;exitY=0.197;exitDx=0;exitDy=0;exitPerimeter=0;" edge="1" parent="1" source="HfNDsVtk481CN_nXI6_j-18">
          <mxGeometry width="100" height="100" relative="1" as="geometry">
            <mxPoint x="520" y="480" as="sourcePoint" />
            <mxPoint x="590" y="372" as="targetPoint" />
          </mxGeometry>
        </mxCell>
        <mxCell id="HfNDsVtk481CN_nXI6_j-62" value="" style="edgeStyle=entityRelationEdgeStyle;fontSize=12;html=1;endArrow=ERzeroToMany;startArrow=ERmandOne;rounded=0;exitX=1;exitY=0.197;exitDx=0;exitDy=0;exitPerimeter=0;entryX=0;entryY=0.5;entryDx=0;entryDy=0;" edge="1" parent="1" target="HfNDsVtk481CN_nXI6_j-25">
          <mxGeometry width="100" height="100" relative="1" as="geometry">
            <mxPoint x="230" y="320.00000000000006" as="sourcePoint" />
            <mxPoint x="590" y="320.93" as="targetPoint" />
          </mxGeometry>
        </mxCell>
        <mxCell id="HfNDsVtk481CN_nXI6_j-63" value="" style="edgeStyle=entityRelationEdgeStyle;fontSize=12;html=1;endArrow=ERzeroToMany;startArrow=ERmandOne;rounded=0;exitX=1;exitY=0.197;exitDx=0;exitDy=0;exitPerimeter=0;" edge="1" parent="1">
          <mxGeometry width="100" height="100" relative="1" as="geometry">
            <mxPoint x="230" y="520" as="sourcePoint" />
            <mxPoint x="320" y="520" as="targetPoint" />
          </mxGeometry>
        </mxCell>
        <mxCell id="HfNDsVtk481CN_nXI6_j-64" value="" style="edgeStyle=entityRelationEdgeStyle;fontSize=12;html=1;endArrow=ERzeroToMany;startArrow=ERmandOne;rounded=0;" edge="1" parent="1" source="HfNDsVtk481CN_nXI6_j-39" target="HfNDsVtk481CN_nXI6_j-53">
          <mxGeometry width="100" height="100" relative="1" as="geometry">
            <mxPoint x="600" y="850" as="sourcePoint" />
            <mxPoint x="700" y="750" as="targetPoint" />
          </mxGeometry>
        </mxCell>
      </root>
    </mxGraphModel>
  </diagram>
</mxfile>
